<?xml version="1.0" standalone="no"?>
<!DOCTYPE svg PUBLIC "-//W3C//DTD SVG 20010904//EN"
 "http://www.w3.org/TR/2001/REC-SVG-20010904/DTD/svg10.dtd">
<svg version="1.0" xmlns="http://www.w3.org/2000/svg"
 width="707.000000pt" height="353.000000pt" viewBox="0 0 707.000000 353.000000"
 preserveAspectRatio="xMidYMid meet">

<g transform="translate(0.000000,353.000000) scale(0.100000,-0.100000)"
fill="#000000" stroke="none">
<path d="M20 2782 c0 -4 38 -13 85 -19 92 -11 121 -28 151 -86 8 -15 98 -298
199 -630 102 -331 189 -611 193 -621 8 -18 10 -16 32 15 13 19 50 61 81 94
l56 60 -153 504 c-99 323 -154 520 -154 548 0 87 32 109 178 119 207 14 91 24
-283 24 -212 0 -385 -4 -385 -8z"/>
<path d="M2495 2780 c-4 -6 12 -10 42 -10 26 -1 79 -5 118 -10 60 -7 74 -13
97 -39 47 -52 40 -110 -49 -419 -19 -68 -33 -125 -31 -127 15 -15 36 40 91
232 35 121 75 242 89 269 30 58 74 84 141 84 35 0 47 4 45 13 -6 16 -533 23
-543 7z"/>
<path d="M1565 2768 c-10 -27 -175 -672 -175 -685 0 -27 28 -12 34 20 4 17 30
122 58 232 l52 200 19 -64 19 -63 40 63 c22 35 53 80 68 99 l27 35 -26 87 -26
88 -43 0 c-25 0 -45 -5 -47 -12z"/>
<path d="M1725 2311 c-19 -38 -42 -97 -51 -130 -15 -51 -15 -66 -4 -106 7 -25
21 -50 31 -56 11 -5 57 -8 102 -7 l83 3 -55 183 c-31 100 -59 182 -63 182 -4
0 -23 -31 -43 -69z"/>
<path d="M2636 2058 c-7 -18 -93 -318 -192 -665 -98 -348 -181 -633 -184 -633
-3 0 -17 48 -33 108 -15 59 -70 252 -123 428 l-97 321 -56 6 c-31 4 -76 13
-100 22 -24 8 -46 13 -49 10 -3 -2 11 -56 29 -120 23 -77 39 -115 48 -115 26
0 101 -41 133 -73 84 -84 91 -235 17 -378 l-18 -37 54 -182 c30 -101 55 -185
55 -186 0 -2 26 -4 58 -4 l59 0 213 748 c117 411 215 755 218 765 8 31 -19 18
-32 -15z"/>
<path d="M1349 1938 c-15 -57 -25 -105 -23 -107 2 -2 9 -1 17 2 16 6 62 180
52 196 -13 23 -21 8 -46 -91z"/>
<path d="M1719 1909 l18 -63 79 -17 c43 -9 92 -22 108 -28 25 -10 28 -9 23 6
-2 10 -13 48 -23 86 l-18 67 -42 0 c-22 0 -68 3 -101 6 l-61 7 17 -64z"/>
<path d="M1760 1789 c0 -5 26 -29 58 -54 54 -43 154 -86 168 -72 4 4 1 23 -7
43 -11 29 -23 40 -62 55 -55 22 -157 40 -157 28z"/>
<path d="M1294 1692 c-6 -4 -20 -43 -31 -87 -11 -44 -60 -235 -108 -425 -47
-190 -91 -363 -97 -385 -10 -39 -11 -38 -44 105 -36 155 -111 426 -124 449
-10 18 -66 -58 -115 -156 l-36 -71 71 -229 c43 -140 77 -233 87 -241 20 -14
108 -42 134 -42 13 0 22 19 37 83 25 104 241 966 248 990 6 18 -3 22 -22 9z"/>
<path d="M2682 1183 c4 -490 4 -492 75 -565 53 -54 116 -73 243 -73 92 0 112
3 161 26 63 30 98 70 125 144 16 45 19 95 22 478 l4 427 -116 0 -115 0 -3
-422 c-3 -490 -3 -487 -89 -488 -24 0 -42 7 -55 21 -18 20 -19 45 -22 455 l-3
434 -115 0 -115 0 3 -437z"/>
<path d="M3460 1090 l0 -530 240 0 240 0 0 75 0 75 -125 0 -125 0 0 455 0 455
-115 0 -115 0 0 -530z"/>
<path d="M4040 1203 c0 -438 4 -480 46 -553 83 -140 430 -147 520 -10 52 78
54 100 54 557 l0 423 -115 0 -115 0 0 -429 c0 -418 0 -429 -21 -455 -27 -34
-86 -37 -115 -5 -18 20 -19 45 -22 455 l-3 434 -114 0 -115 0 0 -417z"/>
<path d="M4820 1090 l0 -530 120 0 120 0 0 230 0 230 80 0 80 0 0 -230 0 -230
120 0 120 0 0 530 0 530 -120 0 -120 0 0 -215 0 -215 -80 0 -80 0 0 215 0 215
-120 0 -120 0 0 -530z"/>
<path d="M5700 1233 c-40 -214 -85 -451 -100 -528 l-26 -140 104 -3 c58 -1
107 0 110 3 3 3 13 52 22 108 l16 102 81 3 81 3 5 -33 c3 -18 11 -68 18 -110
l12 -78 103 0 c90 0 104 2 104 16 0 9 -43 245 -95 525 -52 279 -95 510 -95
513 0 3 -60 6 -133 6 l-133 0 -74 -387z m235 -88 c34 -243 37 -225 -31 -225
l-57 0 6 33 c2 17 15 110 28 204 12 95 24 171 26 169 2 -1 14 -83 28 -181z"/>
<path d="M6350 1090 l0 -530 100 0 100 0 2 268 3 269 105 -268 105 -268 77 -1
78 0 2 530 3 530 -97 0 -98 0 -2 -250 -3 -251 -106 248 -106 248 -81 3 -82 3
0 -531z"/>
<path d="M1880 1376 c0 -2 9 -32 19 -67 11 -35 29 -98 41 -139 22 -73 22 -74
36 -48 41 77 35 169 -12 213 -22 20 -84 50 -84 41z"/>
<path d="M910 570 c0 -6 23 -9 53 -9 44 1 48 2 22 9 -44 11 -75 11 -75 0z"/>
</g>
</svg>
